<svg id="ROAD" xmlns="http://www.w3.org/2000/svg" xmlns:xlink="http://www.w3.org/1999/xlink" width="341.751" height="121.628" viewBox="0 0 341.751 121.628">
  <defs>
    <radialGradient id="radial-gradient" cx="1.5" cy="-10.083" r="25.529" gradientTransform="translate(0.975 -0.181) scale(0.35 0.928)" gradientUnits="objectBoundingBox">
      <stop offset="0" stop-color="#404040"/>
      <stop offset="0.23" stop-color="#3a3a3a"/>
      <stop offset="0.504" stop-color="#2c2c2c"/>
      <stop offset="0.8" stop-color="#141414"/>
      <stop offset="1"/>
    </radialGradient>
    <radialGradient id="radial-gradient-2" cx="0.144" cy="-1.687" r="4.258" gradientTransform="translate(0.091 -0.031) scale(0.365 0.928)" xlink:href="#radial-gradient"/>
  </defs>
  <g id="Group_20079" data-name="Group 20079" transform="translate(25.703 36.718)" style="mix-blend-mode: multiply;isolation: isolate">
    <g id="Group_20078" data-name="Group 20078">
      <path id="Path_15132" data-name="Path 15132" d="M95.06,211.5h0Z" transform="translate(-95.06 -211.498)" fill="#e6e6e6"/>
    </g>
  </g>
  <g id="Group_20080" data-name="Group 20080" transform="translate(0 9.484)" style="mix-blend-mode: multiply;isolation: isolate">
    <path id="Path_15133" data-name="Path 15133" d="M129.345,192.966l-1.2-.132q-1.2-.138-2.452-.2l-2.553-.07H77.187l.135,18.607h38.4l14.8-18.028C130.13,193.082,129.746,193.01,129.345,192.966Z" transform="translate(-77.187 -192.56)" fill="#b5b5b5"/>
    <path id="Path_15134" data-name="Path 15134" d="M323.843,269.453H264.855L260,257.6l-3.369-8.231-2.067-5.048a39.912,39.912,0,0,0-1.739-3.766,21.047,21.047,0,0,0-1.163-1.77,17.939,17.939,0,0,0-1.3-1.71c-3.646-4.406-9.212-8.236-15.625-10.832a54.024,54.024,0,0,0-9.94-2.967,56.5,56.5,0,0,0-10.407-1.041H138.97l.236-12.3.03-1.556c-.016-.511-.063-1.015-.093-1.52a3.531,3.531,0,0,0-.112-.739,5.465,5.465,0,0,0-.191-.719l-.23-.706a3.589,3.589,0,0,0-.273-.695,13.867,13.867,0,0,0-3.936-5.015c-3.473-2.952-8.821-5.079-14.85-6.015l-14.8,18.028-2.507,6.839.157,7.465-.1,1.2a7.087,7.087,0,0,0-.047,1.205,13.7,13.7,0,0,0,2.361,7.045,21.75,21.75,0,0,0,6.46,6.073,35.207,35.207,0,0,0,9.87,4.172l1.409.358c.479.1.971.191,1.455.288s.969.2,1.467.272l1.5.2q1.5.218,3.065.318l3.19.109h82.85L218.8,257.6l2.578,9.759.792,2.994c.467,1.726.869,3.483,1.5,5.222a25.733,25.733,0,0,0,2.433,5.18,36.234,36.234,0,0,0,3.681,5.042,50.442,50.442,0,0,0,10.692,9.125,63.137,63.137,0,0,0,21.784,8.587,52.344,52.344,0,0,0,7.816.917c2.63.155,5.236.091,7.849.1H407.895v-35.54Z" transform="translate(-66.214 -192.383)" fill="#b5b5b5"/>
    <path id="Path_15136" data-name="Path 15136" d="M102.237,219.809l0-9.554,2.318,5.529-2.217,4.025" transform="translate(-66.213 -184.808)" fill="#b5b5b5"/>
  </g>
  <g id="Group_20083" data-name="Group 20083" transform="translate(0.135)">
    <g id="Group_20081" data-name="Group 20081">
      <path id="Path_15137" data-name="Path 15137" d="M129.3,186.371l-1.2-.132q-1.2-.138-2.452-.2l-2.553-.07H77.288l-.007,18.607h38.4l14.8-18.028C130.089,186.487,129.7,186.415,129.3,186.371Z" transform="translate(-77.281 -185.965)" fill="url(#radial-gradient)"/>
      <path id="Path_15138"  data-name="Path 15138" d="M323.843,262.858H264.855L260,251l-3.369-8.232-2.067-5.048a39.909,39.909,0,0,0-1.739-3.766,21.041,21.041,0,0,0-1.163-1.77,17.935,17.935,0,0,0-1.3-1.71c-3.646-4.406-9.212-8.236-15.625-10.832a54.027,54.027,0,0,0-9.94-2.967,56.5,56.5,0,0,0-10.407-1.041H138.97l.236-12.3.03-1.556c-.016-.51-.063-1.015-.093-1.52a3.531,3.531,0,0,0-.112-.739,5.464,5.464,0,0,0-.191-.719l-.23-.706a3.59,3.59,0,0,0-.273-.695,13.866,13.866,0,0,0-3.936-5.015c-3.473-2.952-9.236-5.152-15.264-6.088l-14.524,17.037L102.4,218.7l-.1,1.2a7.088,7.088,0,0,0-.047,1.205,13.7,13.7,0,0,0,2.361,7.045,21.75,21.75,0,0,0,6.46,6.073,35.209,35.209,0,0,0,9.87,4.172l1.409.358c.479.1.971.191,1.455.288s.969.2,1.467.272l1.5.2q1.5.218,3.065.318l3.19.109h82.85L218.8,251l2.578,9.759.792,2.994c.467,1.726.869,3.483,1.5,5.222a25.733,25.733,0,0,0,2.433,5.18,36.236,36.236,0,0,0,3.681,5.042,50.442,50.442,0,0,0,10.692,9.125,63.136,63.136,0,0,0,21.784,8.587,52.34,52.34,0,0,0,7.816.918c2.63.155,5.236.091,7.849.105H407.895l.07-35.435Z" transform="translate(-66.349 -185.788)" fill="url(#radial-gradient-2)"/>
    </g>
    <g id="Group_20082" data-name="Group 20082" transform="translate(0.22 1.927)">
      <line id="Line_49" data-name="Line 49" y1="0.464" x2="0.151" transform="translate(5.063 0.012)" fill="#e0e0e0"/>
      <line id="Line_50" data-name="Line 50" y1="0.523" x2="0.171" transform="translate(0.624 13.57)" fill="#e0e0e0"/>
      <path id="Path_15140" data-name="Path 15140" d="M77.664,191.83l-.23.656H88.952l.2-.656H77.664Z" transform="translate(-77.434 -185.323)" fill="#e0e0e0"/>
      <path id="Path_15141" data-name="Path 15141" d="M121.961,187.781l2.246.053c.774.033,1.473.085,2.143.155l1.073.1c.22.022.433.055.646.086.125.02.25.039.377.056h0c5.3.769,10.006,2.663,12.93,5.239a11.1,11.1,0,0,1,3.236,4.4,8.882,8.882,0,0,1,.568,2.488l.039,1.326-.558,14.211h0a1.976,1.976,0,0,0,1.234,1.844,4.482,4.482,0,0,0,1.483.5,7.142,7.142,0,0,0,1.276.085h76.7a50.708,50.708,0,0,1,9.1.834,44.749,44.749,0,0,1,8.695,2.567,32.385,32.385,0,0,1,13.391,9.547,14.113,14.113,0,0,1,1.056,1.491,17.586,17.586,0,0,1,.922,1.523c.519,1.1,1.022,2.182,1.429,3.293l5.061,13,4.9,12.6a4.14,4.14,0,0,0,.811,1.425,6.857,6.857,0,0,0,3.581,2.049,7.307,7.307,0,0,0,1.759.2c.1,0,.19,0,.276,0H417.043l-.682-.854H275.973a6.23,6.23,0,0,1-1.606-.142,5.179,5.179,0,0,1-2.678-1.529,3.191,3.191,0,0,1-.633-1.13L266.1,250.59l-5.109-13c-.417-1.127-.93-2.225-1.468-3.351a18.506,18.506,0,0,0-.985-1.616,14.06,14.06,0,0,0-1.086-1.521c-3.129-4.022-8.066-7.5-13.885-9.864a46.54,46.54,0,0,0-9-2.65,52.547,52.547,0,0,0-9.378-.859H148.815a6.567,6.567,0,0,1-1.162-.062,3.343,3.343,0,0,1-1.107-.372,1.5,1.5,0,0,1-.929-1.383l-.48-.012h.482l.5-14.221-.046-1.342a9.2,9.2,0,0,0-.6-2.578,11.547,11.547,0,0,0-3.369-4.559c-3.034-2.663-7.909-4.622-13.4-5.417l-.132.224.127-.224c-.121-.017-.242-.035-.361-.053-.236-.036-.472-.07-.716-.1l-1.069-.1c-.692-.073-1.419-.125-2.239-.161l-2.275-.053L78.027,187.3l-.247.476Z" transform="translate(-77.282 -187.305)" fill="#e0e0e0"/>
      <path id="Path_15142" data-name="Path 15142" d="M101.494,192.486l.136-.656H90.949l-.167.656Z" transform="translate(-71.587 -185.323)" fill="#e0e0e0"/>
      <path id="Path_15143" data-name="Path 15143" d="M116.166,193.764l.764-.531a17.321,17.321,0,0,0-5.44-1.306h-.013c-.892-.088-1.8-.092-2.678-.095h-3.226l-.108.656,3.23,0c.876,0,1.7,0,2.5.085l.145-.325-.132.326A15.726,15.726,0,0,1,116.166,193.764Z" transform="translate(-65.154 -185.323)" fill="#e0e0e0"/>
      <path id="Path_15144" data-name="Path 15144" d="M116.913,201.516c.017-.236.037-.473.058-.712l.178-1.94c.055-.613.119-1.415.141-2.212l-1.2.024c-.027.785-.095,1.58-.151,2.187l-.188,1.94c-.023.24-.043.479-.062.715l-.158,1.688h1.235Z" transform="translate(-60.746 -183.21)" fill="#e0e0e0"/>
      <path id="Path_15145" data-name="Path 15145" d="M114.94,211.78a6.2,6.2,0,0,0,.871,1.966l1.205-.364a5.668,5.668,0,0,1-.79-1.765,6.182,6.182,0,0,1-.083-1.865l-.651,0h.651l.338-3.834h-1.27l-.357,3.834h0A6.694,6.694,0,0,0,114.94,211.78Z" transform="translate(-61.058 -179.152)" fill="#e0e0e0"/>
      <path id="Path_15146" data-name="Path 15146" d="M125.683,214.419a21.32,21.32,0,0,1-3.657-.272l-.391.825a23.242,23.242,0,0,0,4.018.3c.187,0,.374,0,.546,0H134l0-.857h-7.79Z" transform="translate(-58.07 -175.546)" fill="#e0e0e0"/>
      <path id="Path_15147" data-name="Path 15147" d="M138.364,214.333l.035.857h13.164l-.078-.857h-13.12Z" transform="translate(-50.742 -175.465)" fill="#e0e0e0"/>
      <path id="Path_15148" data-name="Path 15148" d="M155.964,215.19h12.243l-.158-.857h-12.2Z" transform="translate(-43.083 -175.465)" fill="#e0e0e0"/>
      <path id="Path_15149" data-name="Path 15149" d="M172.566,214.333l.2.857h6.582l6.654,0-.238-.857-6.634,0Z" transform="translate(-35.759 -175.465)" fill="#e0e0e0"/>
      <path id="Path_15150" data-name="Path 15150" d="M190.632,216.368l-.766.611a13.092,13.092,0,0,1,5.424,5.194,18.851,18.851,0,0,1,.743,1.941l.04.121h1.388l-.042-.121a19.23,19.23,0,0,0-.792-2.035A14.471,14.471,0,0,0,190.632,216.368Z" transform="translate(-28.18 -174.573)" fill="#e0e0e0"/>
      <path id="Path_15151" data-name="Path 15151" d="M196.209,227.873l1.659,4.946,1.719,5.124h1.484l-1.745-5.124-1.685-4.946Z" transform="translate(-25.402 -169.533)" fill="#e0e0e0"/>
      <path id="Path_15152" data-name="Path 15152" d="M204.026,245.372a13.461,13.461,0,0,1-1.467-3.136c-.059-.171-.115-.342-.17-.513l-1.54-.017q.084.265.173.531a14.736,14.736,0,0,0,1.575,3.391,16.8,16.8,0,0,0,3.369,3.785,24.185,24.185,0,0,0,3.466,2.452l.794-.867a22,22,0,0,1-3.146-2.216A15.22,15.22,0,0,1,204.026,245.372Z" transform="translate(-23.369 -163.474)" fill="#e0e0e0"/>
      <path id="Path_15153" data-name="Path 15153" d="M216.5,250.428l.487,1.234H232.7l-.549-1.234H216.5Z" transform="translate(-16.514 -159.652)" fill="#e0e0e0"/>
      <path id="Path_15154" data-name="Path 15154" d="M238.023,251.662h14.7l-.664-1.234H237.417Z" transform="translate(-7.349 -159.652)" fill="#e0e0e0"/>
      <path id="Path_15155" data-name="Path 15155" d="M257.479,250.428l.72,1.234h15.806l-.782-1.234H257.479Z" transform="translate(-1.56 -159.652)" fill="#e0e0e0"/>
      <path id="Path_15156" data-name="Path 15156" d="M279.3,251.662H294l-.9-1.234H278.458Z" transform="translate(10.63 -159.652)" fill="#e0e0e0"/>
      <path id="Path_15157" data-name="Path 15157" d="M298.52,250.428l.954,1.234H315.28l-1.016-1.234H298.52Z" transform="translate(21.419 -159.652)" fill="#e0e0e0"/>
      <path id="Path_15158" data-name="Path 15158" d="M413.771,287.373H286.35q-.869,0-1.737,0c-1.582.006-3.223.007-4.848-.072a48.561,48.561,0,0,1-12.9-2.179,51.5,51.5,0,0,1-11.847-5.377,40.9,40.9,0,0,1-9.028-7.62,26.023,26.023,0,0,1-5.1-8.607c-.413-1.116-.738-2.265-1.051-3.368-.1-.358-.2-.715-.306-1.068l-3.623-12.625-3.264-11.381c-.035-.1-.063-.21-.092-.316a4.671,4.671,0,0,0-.289-.833,4.746,4.746,0,0,0-2.461-2.061,7.323,7.323,0,0,0-1.8-.495,9.086,9.086,0,0,0-1.429-.072H144.659l-2.681-.075c-.941-.05-1.776-.122-2.566-.221l-1.278-.147c-.263-.035-.522-.081-.781-.128-.15-.026-.3-.053-.439-.076l-.446-.078c-.265-.045-.529-.091-.768-.138l-1.207-.285a28.833,28.833,0,0,1-8.37-3.392,17.744,17.744,0,0,1-5.482-5.079,11.169,11.169,0,0,1-1.921-5.939h0a11.46,11.46,0,0,1,.06-1.309c.022-.246.043-.49.053-.716l1.986-14.02c.01-.095.024-.19.04-.285a3.25,3.25,0,0,0,.056-.643,1.57,1.57,0,0,0-.441-.938,4.123,4.123,0,0,0-2.63-1.061l-.1.253.1-.253c-.391-.032-.779-.03-1.158-.027-.158,0-.318,0-.483,0H78.038l-.17.522h38.243c.167,0,.335,0,.5,0,.362,0,.7,0,1.03.023a3.162,3.162,0,0,1,2.026.823,1.2,1.2,0,0,1,.338.722,2.888,2.888,0,0,1-.055.575c-.016.1-.032.2-.043.293l-2.039,14.031c-.013.239-.035.48-.056.722a11.2,11.2,0,0,0-.068,1.355l.489-.033-.489.035a11.552,11.552,0,0,0,1.974,6.165,18.365,18.365,0,0,0,5.678,5.282,29.925,29.925,0,0,0,8.7,3.538l1.235.292c.275.056.554.1.833.152l.446.078c.144.023.286.049.429.075.285.052.568.1.867.139l1.281.148c.82.1,1.694.18,2.692.232l2.728.076h82.149a8.082,8.082,0,0,1,1.194.056,5.663,5.663,0,0,1,1.4.383,3.672,3.672,0,0,1,1.9,1.593,4.226,4.226,0,0,1,.25.736c.03.111.06.221.092.326l3.22,11.375,3.876,13.692c.312,1.116.637,2.279,1.053,3.413a26.879,26.879,0,0,0,5.263,8.928,42.289,42.289,0,0,0,9.365,7.935,53.35,53.35,0,0,0,12.316,5.607,50.419,50.419,0,0,0,13.4,2.275c1.32.063,2.645.075,3.943.075h.984c.577,0,1.155,0,1.736,0H414.573Z" transform="translate(-77.244 -183.172)" fill="#e0e0e0"/>
    </g>
  </g>
</svg>
