<svg id="street" xmlns="http://www.w3.org/2000/svg" xmlns:xlink="http://www.w3.org/1999/xlink" width="411" height="194.348" viewBox="0 0 411 194.348">
  <defs>
    <clipPath id="clip-path">
      <path id="SVGID" d="M411,0H0V194.348H411" transform="translate(0)" fill="none"/>
    </clipPath>
    <clipPath id="clip-path-2">
      <path id="SVGID-2" data-name="SVGID" d="M-127.649,69.738c.58-4.922,6.185-9.436,15.824-12.766l.589-9.316c-9.639,3.329-15.245,7.843-15.825,12.766h0c-.2,3.105-.379,6.211-.589,9.316Z" transform="translate(127.65 -47.656)" fill="none"/>
    </clipPath>
    <clipPath id="clip-path-3">
      <path id="SVGID-3" data-name="SVGID" d="M-130.763,70.986c.545-4.677,5.866-8.968,15.024-12.139l.589-9.316c-9.158,3.171-14.479,7.462-15.024,12.139q-.042.354-.065.712l-.589,9.316C-130.813,71.459-130.792,71.222-130.763,70.986Z" transform="translate(130.828 -49.531)" fill="none"/>
    </clipPath>
    <clipPath id="clip-path-4">
      <path id="SVGID-4" data-name="SVGID" d="M-138.067,74.454c.274-4.341,2.761-7.934,12.6-11.336l.589-9.316c-9.843,3.4-12.33,7-12.6,11.336C-137.655,67.932-137.891,71.658-138.067,74.454Z" transform="translate(138.067 -53.801)" fill="none"/>
    </clipPath>
    <clipPath id="clip-path-5">
      <path id="SVGID-5" data-name="SVGID" d="M-98.773,90.5q.021-.343.06-.684.3-4.659.589-9.316c-.026.227-.046.456-.061.685C-98.361,83.98-98.6,87.707-98.773,90.5Z" transform="translate(98.773 -80.501)" fill="none"/>
    </clipPath>
    <clipPath id="clip-path-6">
      <path id="SVGID-6" data-name="SVGID" d="M-99.864,97.5a33.67,33.67,0,0,1,.448,6.614l.589-9.316a33.671,33.671,0,0,0-.448-6.614,30.075,30.075,0,0,1-.422-5.922l-.589,9.316A30.033,30.033,0,0,0-99.864,97.5Z" transform="translate(100.316 -82.262)" fill="none"/>
    </clipPath>
    <clipPath id="clip-path-7">
      <path id="SVGID-7" data-name="SVGID" d="M-116.118,82.965l-.589,9.316a29.849,29.849,0,0,0,.415,5.689,34.532,34.532,0,0,1,.459,6.874l.589-9.316a34.571,34.571,0,0,0-.46-6.874A29.843,29.843,0,0,1-116.118,82.965Z" transform="translate(116.734 -82.965)" fill="none"/>
    </clipPath>
    <clipPath id="clip-path-8">
      <path id="SVGID-8" data-name="SVGID" d="M-104.506,97.71a34.35,34.35,0,0,1,.454,6.741l.589-9.316a34.35,34.35,0,0,0-.455-6.741,29.782,29.782,0,0,1-.416-5.806l-.589,9.316A29.741,29.741,0,0,0-104.506,97.71Z" transform="translate(104.952 -82.588)" fill="none"/>
    </clipPath>
    <clipPath id="clip-path-9">
      <path id="SVGID-9" data-name="SVGID" d="M-100.249,126.4a14.805,14.805,0,0,0,.377-2.555l.589-9.316a14.851,14.851,0,0,1-.376,2.555Q-99.955,121.737-100.249,126.4Z" transform="translate(100.249 -114.524)" fill="none"/>
    </clipPath>
    <clipPath id="clip-path-10">
      <path id="SVGID-10" data-name="SVGID" d="M-142.324,65.95l-.589,9.316c.271-4.281,2.764-7.789,12.713-11.063l.589-9.316C-139.56,58.161-142.053,61.669-142.324,65.95Z" transform="translate(142.913 -54.887)" fill="none"/>
    </clipPath>
    <clipPath id="clip-path-11">
      <path id="SVGID-11" data-name="SVGID" d="M-39.5,63.615q.043-.195.092-.389.3-4.659.589-9.316c-.033.13-.063.259-.092.389Z" transform="translate(39.499 -53.91)" fill="none"/>
    </clipPath>
    <clipPath id="clip-path-12">
      <path id="SVGID-12" data-name="SVGID" d="M-39,64.227c.036-.251.032-.5.048-.753l.048-.753.493-7.81a15.468,15.468,0,0,0-.327,2.367l-.589,9.316A15.4,15.4,0,0,1-39,64.227Z" transform="translate(39.331 -54.911)" fill="none"/>
    </clipPath>
    <clipPath id="clip-path-13">
      <path id="SVGID-13" data-name="SVGID" d="M-28.019,76.645c.173,1.281.337,2.5.409,3.662l.589-9.316c-.071-1.164-.236-2.382-.409-3.662a34.576,34.576,0,0,1-.458-6.874l-.589,9.316A34.578,34.578,0,0,0-28.019,76.645Z" transform="translate(28.516 -60.454)" fill="none"/>
    </clipPath>
    <clipPath id="clip-path-14">
      <path id="SVGID-14" data-name="SVGID" d="M-28.544,97.709l.589-9.316c0-.274-.017-.55-.034-.831l-.589,9.316Q-28.553,97.3-28.544,97.709Z" transform="translate(28.578 -87.562)" fill="none"/>
    </clipPath>
    <clipPath id="clip-path-15">
      <path id="SVGID-15" data-name="SVGID" d="M-28.561,99.015c.008.406,0,.806-.024,1.2L-28,90.9c.025-.394.032-.793.024-1.2q-.223,3.525-.446,7.05-.035.567-.071,1.133C-28.513,98.26-28.552,98.637-28.561,99.015Z" transform="translate(28.584 -89.699)" fill="none"/>
    </clipPath>
    <clipPath id="clip-path-16">
      <path id="SVGID-16" data-name="SVGID" d="M208.829,218.972c0-.026,0-.061.006-.087q.021-.335.042-.669l.048-.756.493-7.8c-.033.12-.063.24-.09.361q-.3,4.658-.589,9.316Q208.78,219.152,208.829,218.972Z" transform="translate(-208.738 -209.656)" fill="none"/>
    </clipPath>
    <clipPath id="clip-path-17">
      <path id="SVGID-17" data-name="SVGID" d="M208.9,220.02l.026-.118q.294-4.658.589-9.316c-.009.039-.018.078-.026.117Q209.2,215.361,208.9,220.02Z" transform="translate(-208.903 -210.586)" fill="none"/>
    </clipPath>
    <clipPath id="clip-path-18">
      <path id="SVGID-18" data-name="SVGID" d="M209.163,220.2c.023-.162.021-.326.031-.489q.279-4.414.558-8.827a10.649,10.649,0,0,0-.212,1.573l-.589,9.316A10.649,10.649,0,0,1,209.163,220.2Z" transform="translate(-208.951 -210.888)" fill="none"/>
    </clipPath>
    <clipPath id="clip-path-19">
      <path id="SVGID-19" data-name="SVGID" d="M-120.716,154.369l-.589,9.316c.271-4.281,2.764-7.789,12.713-11.063,13.935-4.586,49.268-3.729,67.845-2.548,22.324,1.42,50.1,3.185,75.131-5.053,18.431-6.066,22.528-13.33,22.956-20.09l.589-9.316c-.427,6.761-4.524,14.024-22.956,20.09-25.029,8.238-52.807,6.473-75.131,5.053-18.578-1.181-53.911-2.038-67.846,2.548C-117.952,146.58-120.446,150.088-120.716,154.369Z" transform="translate(121.305 -115.615)" fill="none"/>
    </clipPath>
    <clipPath id="clip-path-20">
      <path id="SVGID-20" data-name="SVGID" d="M296.752,213.936l.589-9.316a32.469,32.469,0,0,0-.437-5.32,34.683,34.683,0,0,1-.456-6.872l-.589,9.316a34.678,34.678,0,0,0,.456,6.872A32.527,32.527,0,0,1,296.752,213.936Z" transform="translate(-295.819 -192.428)" fill="none"/>
    </clipPath>
    <clipPath id="clip-path-21">
      <path id="SVGID-21" data-name="SVGID" d="M301.1,192.085l-.589,9.316a35.392,35.392,0,0,0,.464,6.995,29.181,29.181,0,0,1,.4,5.538l.589-9.316a29.134,29.134,0,0,0-.4-5.538A35.311,35.311,0,0,1,301.1,192.085Z" transform="translate(-300.472 -192.085)" fill="none"/>
    </clipPath>
    <clipPath id="clip-path-22">
      <path id="SVGID-22" data-name="SVGID" d="M295.854,233.111q-.007.187-.019.373l.589-9.316q.012-.185.018-.373-.264,4.177-.528,8.354C295.894,232.47,295.869,232.791,295.854,233.111Z" transform="translate(-295.835 -223.795)" fill="none"/>
    </clipPath>
    <clipPath id="clip-path-23">
      <path id="SVGID-23" data-name="SVGID" d="M224.545,229.435a33.677,33.677,0,0,1,.447,6.611l.589-9.316a33.6,33.6,0,0,0-.447-6.611,30.507,30.507,0,0,1-.425-5.944l-.589,9.316A30.513,30.513,0,0,0,224.545,229.435Z" transform="translate(-224.09 -214.175)" fill="none"/>
    </clipPath>
    <clipPath id="clip-path-24">
      <path id="SVGID-24" data-name="SVGID" d="M208.285,214.93l-.589,9.316a29.864,29.864,0,0,0,.416,5.69,34.612,34.612,0,0,1,.459,6.874l.589-9.316a34.53,34.53,0,0,0-.459-6.874A29.86,29.86,0,0,1,208.285,214.93Z" transform="translate(-207.67 -214.93)" fill="none"/>
    </clipPath>
    <clipPath id="clip-path-25">
      <path id="SVGID-25" data-name="SVGID" d="M219.891,229.694a34.163,34.163,0,0,1,.459,6.739l.589-9.316a34.155,34.155,0,0,0-.458-6.738,29.868,29.868,0,0,1-.416-5.806l-.589,9.316A29.862,29.862,0,0,0,219.891,229.694Z" transform="translate(-219.446 -214.573)" fill="none"/>
    </clipPath>
    <clipPath id="clip-path-26">
      <path id="SVGID-26" data-name="SVGID" d="M565.346,338.888q.294-4.658.589-9.316a25.3,25.3,0,0,1-.167-4.41l-.589,9.316A25.371,25.371,0,0,0,565.346,338.888Z" transform="translate(-565.142 -325.162)" fill="none"/>
    </clipPath>
    <clipPath id="clip-path-27">
      <path id="SVGID-27" data-name="SVGID" d="M203.687,286.325l-.589,9.316c.27-4.28,2.768-7.789,12.716-11.063,13.926-4.583,27.348-3.729,45.926-2.548,22.324,1.42,50.094,3.188,75.131-5.053,18.431-6.066,22.528-13.33,22.956-20.09l.589-9.316c-.427,6.76-4.524,14.024-22.956,20.09-25.037,8.24-52.807,6.472-75.131,5.052-18.578-1.181-32-2.036-45.925,2.548C206.456,278.536,203.957,282.044,203.687,286.325Z" transform="translate(-203.098 -247.571)" fill="none"/>
    </clipPath>
    <clipPath id="clip-path-28">
      <path id="SVGID-28" data-name="SVGID" d="M581.154,346.2q.294-4.658.589-9.316a30.406,30.406,0,0,0-.425-5.6,34.817,34.817,0,0,1-.452-6.866l-.589,9.316a34.794,34.794,0,0,0,.452,6.866A30.385,30.385,0,0,1,581.154,346.2Z" transform="translate(-580.238 -324.42)" fill="none"/>
    </clipPath>
    <clipPath id="clip-path-29">
      <path id="SVGID-29" data-name="SVGID" d="M569.08,324.808l-.589,9.316a34.175,34.175,0,0,0,.458,6.745,30.081,30.081,0,0,1,.409,5.787l.589-9.316a30.093,30.093,0,0,0-.409-5.787A34.226,34.226,0,0,1,569.08,324.808Z" transform="translate(-568.454 -324.808)" fill="none"/>
    </clipPath>
    <clipPath id="clip-path-30">
      <path id="SVGID-30" data-name="SVGID" d="M585.505,324.064l-.589,9.316a35.3,35.3,0,0,0,.463,6.993,28.88,28.88,0,0,1,.411,5.547l.589-9.316a28.846,28.846,0,0,0-.412-5.547A35.383,35.383,0,0,1,585.505,324.064Z" transform="translate(-584.877 -324.064)" fill="none"/>
    </clipPath>
    <clipPath id="clip-path-31">
      <path id="SVGID-31" data-name="SVGID" d="M580.282,365.8c0,.031,0,.063-.005.094l.589-9.316c0-.031,0-.063.005-.094C580.675,359.592,580.467,362.7,580.282,365.8Z" transform="translate(-580.277 -356.486)" fill="none"/>
    </clipPath>
    <clipPath id="clip-path-32">
      <path id="SVGID-32" data-name="SVGID" d="M492.7,346.9l-.589,9.316a29.857,29.857,0,0,0,.416,5.69,34.7,34.7,0,0,1,.455,6.867l.589-9.316a34.658,34.658,0,0,0-.455-6.867A29.906,29.906,0,0,1,492.7,346.9Z" transform="translate(-492.081 -346.898)" fill="none"/>
    </clipPath>
    <clipPath id="clip-path-33">
      <path id="SVGID-33" data-name="SVGID" d="M509.119,346.161l-.589,9.316a30.717,30.717,0,0,0,.422,5.939,33.484,33.484,0,0,1,.451,6.617l.589-9.316a33.533,33.533,0,0,0-.452-6.617A30.716,30.716,0,0,1,509.119,346.161Z" transform="translate(-508.5 -346.161)" fill="none"/>
    </clipPath>
    <clipPath id="clip-path-34">
      <path id="SVGID-34" data-name="SVGID" d="M504.3,361.672a34.2,34.2,0,0,1,.459,6.747l.589-9.316a34.243,34.243,0,0,0-.459-6.747,29.909,29.909,0,0,1-.412-5.794l-.588,9.316A29.95,29.95,0,0,0,504.3,361.672Z" transform="translate(-503.862 -346.562)" fill="none"/>
    </clipPath>
    <clipPath id="clip-path-35">
      <path id="SVGID-35" data-name="SVGID" d="M666.42,388.864l.589-9.316c-.427,6.761-4.525,14.026-22.964,20.094-25.029,8.238-52.807,6.473-75.131,5.053-18.578-1.181-65.967-2.038-80.823,2.851l-.589,9.316c14.856-4.889,62.245-4.032,80.823-2.851,22.324,1.42,50.1,3.185,75.131-5.052C661.895,402.89,665.993,395.625,666.42,388.864Z" transform="translate(-487.502 -379.548)" fill="none"/>
    </clipPath>
  </defs>
  <g id="s" transform="translate(0)">
    <g id="Group_1754" data-name="Group 1754" clip-path="url(#clip-path)">
      <g id="Group_1683" data-name="Group 1683" transform="translate(464.538 18.524)" style="isolation: isolate">
        <g id="Group_1682" data-name="Group 1682" transform="translate(0)" clip-path="url(#clip-path-2)">
          <path id="Path_3505" data-name="Path 3505" d="M-127.061,61.107l-.589,9.316q.021-.344.061-.685c.58-4.922,6.185-9.436,15.824-12.766l.589-9.316C-120.815,50.985-126.421,55.5-127,60.422c-.026.228-.046.456-.061.685" transform="translate(127.59 -47.656)" fill="#1d1d1d"/>
        </g>
      </g>
      <g id="Group_1685" data-name="Group 1685" transform="translate(467.017 19.252)" style="isolation: isolate">
        <g id="Group_1684" data-name="Group 1684" transform="translate(0)" clip-path="url(#clip-path-3)">
          <path id="Path_3506" data-name="Path 3506" d="M-130.239,62.38l-.589,9.316c.015-.238.036-.475.065-.711.545-4.677,5.866-8.968,15.024-12.139l.589-9.316c-9.158,3.171-14.479,7.462-15.024,12.139q-.042.354-.064.711" transform="translate(130.828 -49.531)" fill="#858585"/>
        </g>
      </g>
      <g id="Group_1687" data-name="Group 1687" transform="translate(473.468 20.912)" style="isolation: isolate">
        <g id="Group_1686" data-name="Group 1686" transform="translate(0)" clip-path="url(#clip-path-4)">
          <path id="Path_3507" data-name="Path 3507" d="M-137.478,65.137l-.589,9.316c.275-4.34,2.761-7.933,12.6-11.336l.589-9.316c-9.843,3.4-12.33,7-12.6,11.336" transform="translate(138.067 -53.801)" fill="#1d1d1d"/>
        </g>
      </g>
      <g id="Group_1689" data-name="Group 1689" transform="translate(464.478 31.29)" style="isolation: isolate">
        <g id="Group_1688" data-name="Group 1688" transform="translate(0)" clip-path="url(#clip-path-5)">
          <path id="Path_3508" data-name="Path 3508" d="M-127.061,61.107l-.589,9.316q.021-.344.061-.685c.58-4.922,6.185-9.436,15.824-12.766l.589-9.316C-120.815,50.985-126.421,55.5-127,60.422c-.026.228-.046.456-.061.685" transform="translate(127.65 -60.423)" fill="#1d1d1d"/>
        </g>
      </g>
      <g id="Group_1691" data-name="Group 1691" transform="translate(464.448 31.975)" style="isolation: isolate">
        <g id="Group_1690" data-name="Group 1690" transform="translate(0)" clip-path="url(#clip-path-6)">
          <path id="Path_3509" data-name="Path 3509" d="M-98.047,82.262l-.589,9.316q-.02.31-.026.622l.589-9.316c0-.208.013-.416.026-.622" transform="translate(98.666 -82.262)" fill="#949494"/>
          <path id="Path_3510" data-name="Path 3510" d="M-99.723,83.863l-.589,9.316a33.859,33.859,0,0,0,.448,5.3,37.868,37.868,0,0,1,.479,5.855l.589-9.316a37.876,37.876,0,0,0-.48-5.855,33.918,33.918,0,0,1-.448-5.3" transform="translate(100.316 -83.241)" fill="#999"/>
          <path id="Path_3511" data-name="Path 3511" d="M-99.687,112.56l-.589,9.316q-.008.38-.032.761l.589-9.316q.024-.381.032-.761" transform="translate(101.208 -100.783)" fill="#949494"/>
        </g>
      </g>
      <g id="Group_1693" data-name="Group 1693" transform="translate(473.441 32.248)" style="isolation: isolate">
        <g id="Group_1692" data-name="Group 1692" transform="translate(0)" clip-path="url(#clip-path-7)">
          <path id="Path_3512" data-name="Path 3512" d="M-114.454,82.965l-.589,9.316c-.012.187-.02.375-.024.565l.589-9.316q.006-.285.024-.565" transform="translate(115.07 -82.965)" fill="#595959"/>
          <path id="Path_3513" data-name="Path 3513" d="M-116.141,84.419l-.589,9.316a34.2,34.2,0,0,0,.439,5.124,38.755,38.755,0,0,1,.494,6.048l.589-9.316a38.761,38.761,0,0,0-.494-6.049,34.2,34.2,0,0,1-.438-5.124" transform="translate(116.733 -83.854)" fill="#5c5c5c"/>
          <path id="Path_3514" data-name="Path 3514" d="M-116.1,113.163l-.589,9.316c-.006.274-.017.55-.035.826l.589-9.316q.026-.414.035-.825" transform="translate(117.626 -101.425)" fill="#595959"/>
        </g>
      </g>
      <g id="Group_1695" data-name="Group 1695" transform="translate(466.988 32.102)" style="isolation: isolate">
        <g id="Group_1694" data-name="Group 1694" transform="translate(0)" clip-path="url(#clip-path-8)">
          <path id="Path_3515" data-name="Path 3515" d="M-102.681,82.59l-.589,9.316q-.019.3-.025.6l.589-9.316q.007-.3.025-.6" transform="translate(103.299 -82.589)" fill="#202020"/>
          <path id="Path_3516" data-name="Path 3516" d="M-104.359,84.127l-.589,9.316a33.66,33.66,0,0,0,.442,5.208,38.739,38.739,0,0,1,.487,5.96l.589-9.316a38.669,38.669,0,0,0-.487-5.961,33.663,33.663,0,0,1-.442-5.208" transform="translate(104.952 -83.529)" fill="#222"/>
          <path id="Path_3517" data-name="Path 3517" d="M-104.323,112.86l-.589,9.316q-.008.39-.033.781l.589-9.316q.025-.391.032-.781" transform="translate(105.844 -101.093)" fill="#202020"/>
        </g>
      </g>
      <g id="Group_1697" data-name="Group 1697" transform="translate(464.971 44.515)" style="isolation: isolate">
        <g id="Group_1696" data-name="Group 1696" transform="translate(0)" clip-path="url(#clip-path-9)">
          <path id="Path_3518" data-name="Path 3518" d="M-99.661,134.224l-.589,9.316a91.1,91.1,0,0,0,9.278-2.5c15.413-5.072,18.961-11.2,19.341-17.2l.589-9.316c-.38,6-3.929,12.128-19.341,17.2a91.046,91.046,0,0,1-9.278,2.5" transform="translate(72.008 -114.521)" fill="#1d1d1d"/>
        </g>
      </g>
      <path id="Path_3519" data-name="Path 3519" d="M877.914,405.453l-.589,9.316,4.848,2.029.589-9.316Z" transform="translate(-952.536 -247.856)" fill="#2b2b2b"/>
      <path id="Path_3520" data-name="Path 3520" d="M874.626,409.739l-.589,9.316,1.8-.593.589-9.316Z" transform="translate(-944.4 -250.113)" fill="#1e1e1e"/>
      <path id="Path_3521" data-name="Path 3521" d="M876.418,410.673l-.589,9.316.82,1.032.589-9.316Z" transform="translate(-946.192 -251.046)" fill="#afafaf"/>
      <path id="Path_3522" data-name="Path 3522" d="M871.447,411.918l-.589,9.316,2.724-.9.589-9.316Z" transform="translate(-940.402 -251.259)" fill="#898989"/>
      <path id="Path_3523" data-name="Path 3523" d="M799.691,414.47l1.017.891c3.527-.5,7.075-.839,10.637-1.056l-.56-.936C807.068,413.6,803.365,413.953,799.691,414.47Z" transform="translate(-838.576 -252.695)" fill="#fff"/>
      <line id="Line_23" data-name="Line 23" x1="0.81" y1="1.028" transform="translate(-40.668 171.806)" fill="#afafaf"/>
      <line id="Line_24" data-name="Line 24" x2="0.81" y2="1.028" transform="translate(-41.257 181.122)" fill="#afafaf"/>
      <path id="Path_3524" data-name="Path 3524" d="M813.794,453.2l3.967,1.66.589-9.316-3.967-1.66" transform="translate(-853.31 -271.346)" fill="#2b2b2b"/>
      <g id="Group_1699" data-name="Group 1699" transform="translate(-1093.824 569.307)" style="isolation: isolate">
        <g id="Group_1698" data-name="Group 1698" transform="translate(0)">
          <path id="Path_3525" data-name="Path 3525" d="M808.549,477.257q12.522-3.924,25.913-6.8l1.962-31.054q-13.366,2.88-25.913,6.8" transform="translate(-808.549 -439.398)" fill="#858585"/>
          <path id="Path_3526" data-name="Path 3526" d="M822.735,444.65" transform="translate(-820.773 -437.845)" fill="#858585"/>
          <path id="SVGID-36" data-name="SVGID" d="M821.932,468.858q1.707-.534,3.429-1.049" transform="translate(-821.019 -430.999)" fill="none"/>
          <path id="SVGID-37" data-name="SVGID" d="M824.287,443.84q-1.723.515-3.43,1.049" transform="translate(-817.982 -438.085)" fill="none"/>
        </g>
      </g>
      <g id="Group_1701" data-name="Group 1701" transform="translate(476.015 21.334)" style="isolation: isolate">
        <g id="Group_1700" data-name="Group 1700" transform="translate(0)" clip-path="url(#clip-path-10)">
          <path id="Path_3527" data-name="Path 3527" d="M-142.324,65.95l-.589,9.316c.271-4.281,2.764-7.789,12.713-11.063l.589-9.316c-9.948,3.274-12.442,6.782-12.712,11.063" transform="translate(142.913 -54.887)" fill="#505050"/>
        </g>
      </g>
      <path id="Path_3528" data-name="Path 3528" d="M841.844,424.588l1.749.732h0l1.8-.593c.465-.153.93-.306,1.411-.452l-1.675-.751c-.506.155-1,.31-1.485.471l-1.8.593Z" transform="translate(-897.137 -258.902)" fill="#fff"/>
      <g id="Group_1703" data-name="Group 1703" transform="translate(431.965 20.955)" style="isolation: isolate">
        <g id="Group_1702" data-name="Group 1702" transform="translate(0)" clip-path="url(#clip-path-11)">
          <path id="Path_3529" data-name="Path 3529" d="M-70.644,34.624l-.589,9.316c.26-4.116,1.976-8.336,7.853-12.242a42.186,42.186,0,0,1,9.955-4.526l.589-9.316a42.16,42.16,0,0,0-9.955,4.525c-5.878,3.907-7.594,8.126-7.854,12.243" transform="translate(70.906 -31.87)" fill="#1d1d1d"/>
        </g>
      </g>
      <g id="Group_1705" data-name="Group 1705" transform="translate(431.638 21.344)" style="isolation: isolate">
        <g id="Group_1704" data-name="Group 1704" transform="translate(0)" clip-path="url(#clip-path-12)">
          <path id="Path_3530" data-name="Path 3530" d="M-70.644,34.624l-.589,9.316c.26-4.116,1.976-8.336,7.853-12.242a42.186,42.186,0,0,1,9.955-4.526l.589-9.316a42.16,42.16,0,0,0-9.955,4.525c-5.878,3.907-7.594,8.126-7.854,12.243" transform="translate(71.233 -32.259)" fill="#1d1d1d"/>
        </g>
      </g>
      <g id="Group_1707" data-name="Group 1707" transform="translate(425.132 23.498)" style="isolation: isolate">
        <g id="Group_1706" data-name="Group 1706" transform="translate(0)" clip-path="url(#clip-path-13)">
          <path id="Path_3531" data-name="Path 3531" d="M-26.311,60.464-26.9,69.78q-.025.412-.034.822l.589-9.316c.006-.273.017-.547.035-.821" transform="translate(26.939 -60.46)" fill="#202020"/>
          <path id="Path_3532" data-name="Path 3532" d="M-27.991,62.577l-.589,9.316a38.767,38.767,0,0,0,.493,6.049,33.912,33.912,0,0,1,.442,5.138l.589-9.316a33.92,33.92,0,0,0-.443-5.138,38.763,38.763,0,0,1-.493-6.049" transform="translate(28.584 -61.752)" fill="#222"/>
        </g>
      </g>
      <g id="Group_1708" data-name="Group 1708" transform="translate(423.5 35.36)" style="isolation: isolate">
        <path id="Path_3533" data-name="Path 3533" d="M-23.315,90.97l-.589,9.316q-.006.275-.023.545l.589-9.316c.012-.18.019-.362.022-.545" transform="translate(23.927 -90.97)" fill="#595959"/>
      </g>
      <g id="Group_1710" data-name="Group 1710" transform="translate(426.038 34.035)" style="isolation: isolate">
        <g id="Group_1709" data-name="Group 1709" transform="translate(0)" clip-path="url(#clip-path-14)">
          <path id="Path_3534" data-name="Path 3534" d="M-27.991,62.577l-.589,9.316a38.767,38.767,0,0,0,.493,6.049,33.912,33.912,0,0,1,.442,5.138l.589-9.316a33.92,33.92,0,0,0-.443-5.138,38.763,38.763,0,0,1-.493-6.049" transform="translate(27.678 -72.289)" fill="#222"/>
        </g>
      </g>
      <g id="Group_1712" data-name="Group 1712" transform="translate(426.049 34.866)" style="isolation: isolate">
        <g id="Group_1711" data-name="Group 1711" transform="translate(0)" clip-path="url(#clip-path-15)">
          <path id="Path_3535" data-name="Path 3535" d="M-27.991,62.577l-.589,9.316a38.767,38.767,0,0,0,.493,6.049,33.912,33.912,0,0,1,.442,5.138l.589-9.316a33.92,33.92,0,0,0-.443-5.138,38.763,38.763,0,0,1-.493-6.049" transform="translate(27.668 -73.119)" fill="#222"/>
          <path id="Path_3536" data-name="Path 3536" d="M-27.966,91.358l-.589,9.316q-.006.28-.023.556l.589-9.316q.017-.276.024-.556" transform="translate(28.578 -90.713)" fill="#202020"/>
        </g>
      </g>
      <g id="Group_1714" data-name="Group 1714" transform="translate(295.932 81.492)" style="isolation: isolate">
        <g id="Group_1713" data-name="Group 1713" transform="translate(0)" clip-path="url(#clip-path-16)">
          <path id="Path_3537" data-name="Path 3537" d="M172.4,193.612l-.589,9.316c.283-4.472,2.914-8.151,13.519-11.641a69.088,69.088,0,0,1,7.045-1.914l.589-9.316a69.156,69.156,0,0,0-7.045,1.914c-10.6,3.49-13.236,7.169-13.518,11.641" transform="translate(-172.051 -191.562)" fill="#1d1d1d"/>
        </g>
      </g>
      <g id="Group_1716" data-name="Group 1716" transform="translate(295.906 81.854)" style="isolation: isolate">
        <g id="Group_1715" data-name="Group 1715" transform="translate(0)" clip-path="url(#clip-path-17)">
          <path id="Path_3538" data-name="Path 3538" d="M172.4,193.612l-.589,9.316c.283-4.472,2.914-8.151,13.519-11.641a69.088,69.088,0,0,1,7.045-1.914l.589-9.316a69.156,69.156,0,0,0-7.045,1.914c-10.6,3.49-13.236,7.169-13.518,11.641" transform="translate(-172.025 -191.923)" fill="#1d1d1d"/>
        </g>
      </g>
      <g id="Group_1718" data-name="Group 1718" transform="translate(295.694 81.971)" style="isolation: isolate">
        <g id="Group_1717" data-name="Group 1717" transform="translate(0)" clip-path="url(#clip-path-18)">
          <path id="Path_3539" data-name="Path 3539" d="M172.4,193.612l-.589,9.316c.283-4.472,2.914-8.151,13.519-11.641a69.088,69.088,0,0,1,7.045-1.914l.589-9.316a69.156,69.156,0,0,0-7.045,1.914c-10.6,3.49-13.236,7.169-13.518,11.641" transform="translate(-171.813 -192.041)" fill="#1d1d1d"/>
        </g>
      </g>
      <g id="Group_1720" data-name="Group 1720" transform="translate(298.242 44.939)" style="isolation: isolate">
        <g id="Group_1719" data-name="Group 1719" clip-path="url(#clip-path-19)">
          <path id="Path_3540" data-name="Path 3540" d="M-108,143.306a64.369,64.369,0,0,1,6.555-1.779q2.214-.478,4.448-.8,1.836-.271,3.7-.452,1.793-.176,3.621-.278,1.992-.113,4.037-.149,2.558-.048,5.221,0c3.216.058,28.484.209,32.015.407,2.641.148,5.385.322,8.251.5,2.983.19,6.063.386,9.221.563,4.9.276,9.988.506,15.19.6,3.068.056,6.177.063,9.31,0q3.812-.072,7.667-.285,3.526-.2,7.068-.543,3.588-.352,7.171-.876,4.2-.619,8.358-1.508a109.268,109.268,0,0,0,11.146-3.008c18.431-6.066,22.529-13.33,22.956-20.09l-.589,9.316c-.427,6.76-4.524,14.024-22.956,20.09a109.309,109.309,0,0,1-11.146,3.008q-4.157.9-8.358,1.508-3.581.528-7.171.876-3.538.347-7.068.543-3.849.218-7.667.285c-3.133.059-6.241.051-9.31,0-5.2-.094-10.289-.325-15.189-.6-3.158-.177-6.238-.373-9.221-.563-2.867-.182-5.61-.357-8.251-.5-3.531-.2-28.8-.348-32.015-.407q-2.667-.048-5.221,0-2.048.038-4.038.149-1.829.1-3.621.278-1.863.182-3.7.452-2.237.33-4.448.8a64.127,64.127,0,0,0-6.555,1.779c-9.948,3.274-12.442,6.782-12.713,11.063l.589-9.316C-120.446,150.088-117.952,146.58-108,143.306Z" transform="translate(121.305 -115.615)" fill="#7c7c7c"/>
        </g>
      </g>
      <g id="Group_1722" data-name="Group 1722" transform="translate(247.361 74.796)" style="isolation: isolate">
        <g id="Group_1721" data-name="Group 1721" transform="translate(0)" clip-path="url(#clip-path-20)">
          <path id="Path_3541" data-name="Path 3541" d="M298.088,192.434l-.589,9.316q-.026.415-.034.827l.589-9.316q.008-.412.035-.827" transform="translate(-297.46 -192.432)" fill="#202020"/>
          <path id="Path_3542" data-name="Path 3542" d="M296.413,194.561l-.588,9.316a38.824,38.824,0,0,0,.49,6.043,33.981,33.981,0,0,1,.442,5.137l.589-9.316a33.914,33.914,0,0,0-.442-5.137,38.958,38.958,0,0,1-.491-6.043" transform="translate(-295.82 -193.732)" fill="#222"/>
          <path id="Path_3543" data-name="Path 3543" d="M296.438,223.325l-.589,9.316c0,.187-.011.372-.024.556l.589-9.316q.017-.276.023-.556" transform="translate(-294.912 -211.316)" fill="#202020"/>
        </g>
      </g>
      <g id="Group_1724" data-name="Group 1724" transform="translate(244.82 74.663)" style="isolation: isolate">
        <g id="Group_1723" data-name="Group 1723" transform="translate(0)" clip-path="url(#clip-path-21)">
          <path id="Path_3544" data-name="Path 3544" d="M301.09,222.924l-.589,9.316c0,.183-.012.365-.023.546l.589-9.316q.017-.271.023-.546" transform="translate(-299.571 -210.937)" fill="#595959"/>
        </g>
      </g>
      <g id="Group_1726" data-name="Group 1726" transform="translate(248.275 86.988)" style="isolation: isolate">
        <g id="Group_1725" data-name="Group 1725" transform="translate(0)" clip-path="url(#clip-path-22)">
          <path id="Path_3545" data-name="Path 3545" d="M296.438,223.325l-.589,9.316c0,.187-.011.372-.024.556l.589-9.316q.017-.276.023-.556" transform="translate(-295.826 -223.508)" fill="#202020"/>
        </g>
      </g>
      <g id="Group_1728" data-name="Group 1728" transform="translate(286.672 83.249)" style="isolation: isolate">
        <g id="Group_1727" data-name="Group 1727" transform="translate(0)" clip-path="url(#clip-path-23)">
          <path id="Path_3546" data-name="Path 3546" d="M226.362,214.181l-.589,9.316c-.013.207-.021.414-.026.623l.589-9.316q.007-.312.026-.623" transform="translate(-225.743 -214.179)" fill="#949494"/>
          <path id="Path_3547" data-name="Path 3547" d="M224.682,215.783l-.589,9.316a34.62,34.62,0,0,0,.452,5.319,37.865,37.865,0,0,1,.478,5.849l.589-9.316a37.786,37.786,0,0,0-.478-5.849,34.679,34.679,0,0,1-.452-5.319" transform="translate(-224.09 -215.158)" fill="#999"/>
          <path id="Path_3548" data-name="Path 3548" d="M224.718,244.513l-.589,9.316q-.008.381-.032.762l.589-9.316q.025-.381.032-.762" transform="translate(-223.196 -232.721)" fill="#949494"/>
        </g>
      </g>
      <g id="Group_1730" data-name="Group 1730" transform="translate(295.667 83.542)" style="isolation: isolate">
        <g id="Group_1729" data-name="Group 1729" transform="translate(0)" clip-path="url(#clip-path-24)">
          <path id="Path_3549" data-name="Path 3549" d="M209.95,214.93l-.589,9.316q-.017.276-.024.557l.589-9.316q.006-.281.023-.557" transform="translate(-209.335 -214.93)" fill="#595959"/>
          <path id="Path_3550" data-name="Path 3550" d="M208.262,216.364l-.589,9.316a34.1,34.1,0,0,0,.44,5.133,38.752,38.752,0,0,1,.494,6.048l.589-9.316a38.752,38.752,0,0,0-.494-6.048,34.1,34.1,0,0,1-.439-5.133" transform="translate(-207.67 -215.807)" fill="#5c5c5c"/>
          <path id="Path_3551" data-name="Path 3551" d="M208.3,245.13l-.589,9.316c-.006.274-.017.549-.035.825l.589-9.316q.026-.414.035-.825" transform="translate(-206.776 -233.391)" fill="#595959"/>
        </g>
      </g>
      <g id="Group_1732" data-name="Group 1732" transform="translate(289.215 83.404)" style="isolation: isolate">
        <g id="Group_1731" data-name="Group 1731" transform="translate(0)" clip-path="url(#clip-path-25)">
          <path id="Path_3552" data-name="Path 3552" d="M221.723,214.58l-.589,9.316q-.019.3-.025.6l.589-9.316q.007-.3.025-.6" transform="translate(-221.105 -214.577)" fill="#202020"/>
          <path id="Path_3553" data-name="Path 3553" d="M220.038,216.13l-.589,9.316a33.9,33.9,0,0,0,.441,5.2,38.356,38.356,0,0,1,.491,5.963l.589-9.316a38.429,38.429,0,0,0-.49-5.963,33.839,33.839,0,0,1-.442-5.2" transform="translate(-219.446 -215.525)" fill="#222"/>
          <path id="Path_3554" data-name="Path 3554" d="M220.075,244.85l-.589,9.316q-.008.389-.032.779l.589-9.316q.025-.389.032-.778" transform="translate(-218.55 -233.081)" fill="#202020"/>
        </g>
      </g>
      <g id="Group_1734" data-name="Group 1734" transform="translate(100.51 126.389)" style="isolation: isolate">
        <g id="Group_1733" data-name="Group 1733" transform="translate(0)" clip-path="url(#clip-path-26)">
          <path id="Path_3555" data-name="Path 3555" d="M566.068,325.167l-.589,9.316q-.024.381-.032.761l.589-9.316q.007-.38.032-.761" transform="translate(-565.443 -325.165)" fill="#202020"/>
          <path id="Path_3556" data-name="Path 3556" d="M564.394,327.126l-.589,9.316a37.888,37.888,0,0,0,.48,5.855,34.743,34.743,0,0,1,.452,5.317l.589-9.316a34.643,34.643,0,0,0-.451-5.317,37.859,37.859,0,0,1-.479-5.855" transform="translate(-563.8 -326.363)" fill="#222"/>
        </g>
      </g>
      <g id="Group_1736" data-name="Group 1736" transform="translate(142.386 96.23)" style="isolation: isolate">
        <g id="Group_1735" data-name="Group 1735" clip-path="url(#clip-path-27)">
          <path id="Path_3557" data-name="Path 3557" d="M216.4,275.262a64.2,64.2,0,0,1,6.551-1.778q2.214-.477,4.448-.8,1.836-.271,3.7-.452,1.794-.176,3.623-.278,1.994-.113,4.041-.149,2.561-.048,5.227,0c3.22.058,6.571.209,10.106.407,2.635.148,5.373.321,8.232.5,2.99.19,6.077.387,9.243.564,4.9.275,9.98.505,15.178.6,3.067.055,6.173.063,9.3,0q3.811-.071,7.663-.284,3.526-.2,7.065-.543,3.587-.352,7.169-.875,4.2-.619,8.358-1.508a109.428,109.428,0,0,0,11.151-3.009c18.432-6.066,22.529-13.33,22.956-20.09l-.589,9.316c-.427,6.761-4.524,14.024-22.956,20.09a109.311,109.311,0,0,1-11.151,3.009q-4.157.9-8.358,1.508-3.58.528-7.17.876-3.537.347-7.065.543-3.848.218-7.663.285c-3.131.059-6.237.051-9.3,0-5.2-.094-10.282-.324-15.178-.6-3.165-.178-6.253-.374-9.243-.564-2.859-.182-5.6-.356-8.232-.5-3.535-.2-6.887-.349-10.106-.407q-2.671-.048-5.227,0-2.049.038-4.041.149-1.831.1-3.623.278-1.864.183-3.7.452-2.237.331-4.448.805a64.232,64.232,0,0,0-6.55,1.778c-9.947,3.274-12.446,6.783-12.716,11.063l.589-9.316C203.957,282.044,206.455,278.536,216.4,275.262Z" transform="translate(-203.098 -247.571)" fill="#7c7c7c"/>
        </g>
      </g>
      <g id="Group_1738" data-name="Group 1738" transform="translate(91.504 126.101)" style="isolation: isolate">
        <g id="Group_1737" data-name="Group 1737" transform="translate(0)" clip-path="url(#clip-path-28)">
          <path id="Path_3558" data-name="Path 3558" d="M582.5,324.428l-.589,9.316c-.018.278-.029.554-.035.83l.589-9.316q.008-.413.035-.83" transform="translate(-581.872 -324.425)" fill="#202020"/>
          <path id="Path_3559" data-name="Path 3559" d="M580.832,326.563l-.589,9.316a39.085,39.085,0,0,0,.487,6.033,33.983,33.983,0,0,1,.442,5.138l.588-9.316a33.957,33.957,0,0,0-.442-5.138,39.093,39.093,0,0,1-.486-6.033" transform="translate(-580.239 -325.73)" fill="#222"/>
          <path id="Path_3560" data-name="Path 3560" d="M580.857,355.3l-.588,9.316q-.006.28-.023.556l.589-9.316c.011-.184.019-.369.023-.556" transform="translate(-579.335 -343.298)" fill="#202020"/>
        </g>
      </g>
      <g id="Group_1740" data-name="Group 1740" transform="translate(97.966 126.251)" style="isolation: isolate">
        <g id="Group_1739" data-name="Group 1739" transform="translate(0)" clip-path="url(#clip-path-29)">
          <path id="Path_3561" data-name="Path 3561" d="M570.71,324.808l-.589,9.316q-.025.39-.032.779l.589-9.316q.008-.389.033-.779" transform="translate(-570.083 -324.808)" fill="#949494"/>
          <path id="Path_3562" data-name="Path 3562" d="M569.047,326.812l-.589,9.316a38.475,38.475,0,0,0,.491,5.966,34.223,34.223,0,0,1,.434,5.18l.589-9.316a34.143,34.143,0,0,0-.434-5.18,38.536,38.536,0,0,1-.49-5.966" transform="translate(-568.454 -326.033)" fill="#999"/>
          <path id="Path_3563" data-name="Path 3563" d="M569.075,355.486l-.589,9.316q-.007.3-.025.607l.589-9.316q.019-.3.025-.607" transform="translate(-567.557 -343.562)" fill="#949494"/>
        </g>
      </g>
      <g id="Group_1742" data-name="Group 1742" transform="translate(88.959 125.962)" style="isolation: isolate">
        <g id="Group_1741" data-name="Group 1741" transform="translate(0)" clip-path="url(#clip-path-30)">
          <path id="Path_3564" data-name="Path 3564" d="M585.494,354.929l-.589,9.316q-.006.274-.023.543l.589-9.316c.011-.18.018-.361.022-.543" transform="translate(-583.969 -342.932)" fill="#595959"/>
        </g>
      </g>
      <g id="Group_1744" data-name="Group 1744" transform="translate(92.414 138.564)" style="isolation: isolate">
        <g id="Group_1743" data-name="Group 1743" transform="translate(0)" clip-path="url(#clip-path-31)">
          <path id="Path_3565" data-name="Path 3565" d="M580.857,355.3l-.588,9.316q-.006.28-.023.556l.589-9.316c.011-.184.019-.369.023-.556" transform="translate(-580.245 -355.762)" fill="#202020"/>
        </g>
      </g>
      <g id="Group_1746" data-name="Group 1746" transform="translate(139.814 134.838)" style="isolation: isolate">
        <g id="Group_1745" data-name="Group 1745" transform="translate(0)" clip-path="url(#clip-path-32)">
          <path id="Path_3566" data-name="Path 3566" d="M494.353,346.9l-.589,9.316q-.017.276-.023.557l.589-9.316q.007-.281.024-.557" transform="translate(-493.737 -346.898)" fill="#595959"/>
          <path id="Path_3567" data-name="Path 3567" d="M492.674,348.332l-.588,9.316a34.024,34.024,0,0,0,.439,5.133,38.991,38.991,0,0,1,.489,6.038l.589-9.316a38.91,38.91,0,0,0-.489-6.039,34.2,34.2,0,0,1-.439-5.133" transform="translate(-492.082 -347.775)" fill="#5c5c5c"/>
          <path id="Path_3568" data-name="Path 3568" d="M492.713,377.073l-.589,9.316q-.009.413-.035.828l.589-9.316q.026-.415.035-.828" transform="translate(-491.192 -365.344)" fill="#595959"/>
        </g>
      </g>
      <g id="Group_1748" data-name="Group 1748" transform="translate(130.814 134.551)" style="isolation: isolate">
        <g id="Group_1747" data-name="Group 1747" transform="translate(0)" clip-path="url(#clip-path-33)">
          <path id="Path_3569" data-name="Path 3569" d="M510.775,346.161l-.589,9.316q-.02.311-.026.625l.589-9.316q.007-.314.026-.625" transform="translate(-510.157 -346.161)" fill="#949494"/>
          <path id="Path_3570" data-name="Path 3570" d="M509.093,347.769l-.589,9.316a34.975,34.975,0,0,0,.448,5.314,37.629,37.629,0,0,1,.483,5.858l.589-9.316a37.72,37.72,0,0,0-.483-5.858,34.882,34.882,0,0,1-.448-5.314" transform="translate(-508.5 -347.144)" fill="#999"/>
          <path id="Path_3571" data-name="Path 3571" d="M509.129,376.512l-.589,9.316q-.008.38-.032.76l.589-9.316q.024-.38.032-.759" transform="translate(-507.605 -364.715)" fill="#949494"/>
        </g>
      </g>
      <g id="Group_1750" data-name="Group 1750" transform="translate(133.358 134.707)" style="isolation: isolate">
        <g id="Group_1749" data-name="Group 1749" transform="translate(0)" clip-path="url(#clip-path-34)">
          <path id="Path_3572" data-name="Path 3572" d="M506.133,346.567l-.589,9.316q-.02.3-.026.605l.589-9.316q.007-.3.025-.605" transform="translate(-505.516 -346.565)" fill="#202020"/>
          <path id="Path_3573" data-name="Path 3573" d="M504.455,348.124l-.589,9.316a34.055,34.055,0,0,0,.437,5.187,38.45,38.45,0,0,1,.492,5.97l.589-9.316a38.5,38.5,0,0,0-.492-5.97,33.989,33.989,0,0,1-.437-5.187" transform="translate(-503.862 -347.517)" fill="#222"/>
          <path id="Path_3574" data-name="Path 3574" d="M504.491,376.826l-.589,9.316q-.008.388-.032.778l.588-9.316q.025-.39.033-.778" transform="translate(-502.97 -365.063)" fill="#202020"/>
        </g>
      </g>
      <path id="Path_3575" data-name="Path 3575" d="M31.634,159.843c-21.526-1.372-82.216-3.071-106.17,4.543l4.848,2.029,1.8-.593a82.558,82.558,0,0,1,13.3-3.127c17.357-2.645,69.5-1.488,85.539-.468,19.384,1.233,36.109,2.3,53.057-3.282s16.1-11.874,15.129-19.16c-1.1-8.107-2.33-17.289,19.684-24.535s46.433-5.694,67.983-4.319c19.383,1.233,36.117,2.293,53.066-3.285s16.1-11.873,15.12-19.157c-1.1-8.107-2.33-17.289,19.684-24.535s68.353-5.694,89.911-4.322c19.375,1.235,36.108,2.3,53.057-3.282s16.1-11.874,15.121-19.163c-.81-6.026-1.738-12.857,7.4-18.934a42.16,42.16,0,0,1,9.955-4.525l1.81-.6L447.084,11.1c-23.231,7.916-21.878,17.962-20.78,26.057.978,7.238,1.679,12.467-13.1,17.332s-28.686,3.982-47.933,2.757c-21.8-1.387-70.862-3.115-95.043,4.844s-22.8,18.165-21.694,26.363c.977,7.238,1.679,12.467-13.1,17.332s-28.687,3.982-47.933,2.757c-21.8-1.387-48.942-3.115-73.123,4.843s-22.8,18.166-21.7,26.366c.977,7.238,1.679,12.467-13.1,17.332S50.88,161.067,31.634,159.843Z" transform="translate(-0.086 -6.788)" fill="#303030"/>
      <path id="Path_3576" data-name="Path 3576" d="M701.074,413c-3.8-.192-7.665-.339-11.57-.4l.049.946c3.8.063,7.586.207,11.336.4Z" transform="translate(-667.922 -252.224)" fill="#fff"/>
      <path id="Path_3577" data-name="Path 3577" d="M603.1,415.073a101.459,101.459,0,0,1-10.569,1.009l.471.942a106.639,106.639,0,0,0,11.18-1.07Z" transform="translate(-517.889 -253.736)" fill="#fff"/>
      <path id="Path_3578" data-name="Path 3578" d="M652.606,416.6c-3.68-.149-7.452-.368-11.343-.612l-.266.938c3.908.244,7.728.465,11.489.617Z" transform="translate(-592.873 -254.294)" fill="#fff"/>
      <path id="Path_3579" data-name="Path 3579" d="M-113.211,167.664a78.246,78.246,0,0,0-12.637,2.975l-1.8.593,12.739,5.331,1.8-.593c.49-.161.979-.316,1.485-.471l1.675.751c-.481.147-.946.3-1.411.452l-1.8.593,12.875,5.387c10.059-3.153,56.78-4.68,70.02-4.305,5.711.161,11.5.53,17.634.923,21.011,1.336,44.817,2.848,65.977-4.115s19.965-15.919,18.892-23.817c-1.012-7.526-1.892-14.021,15.913-19.881s35.076-4.759,55.08-3.485c21,1.333,44.817,2.848,65.976-4.116s19.957-15.916,18.893-23.817c-1.02-7.523-1.892-14.021,15.9-19.878s57-4.76,76.992-3.489c21.011,1.336,44.825,2.852,65.984-4.112s19.957-15.916,18.892-23.817a26.67,26.67,0,0,1-.361-6.608c.58-4.922,6.185-9.436,15.825-12.766l-12.875-5.388-1.811.6c-.457.15-.93.306-1.371.463l-1.808-.707c.466-.165.948-.33,1.429-.488l1.811-.6-12.325-5.488-2.225.753a39.937,39.937,0,0,0-9.46,4.3c-8.81,5.855-7.9,12.545-7.108,18.449,1.02,7.522,1.9,14.018-15.9,19.878s-35.076,4.76-55.079,3.485c-21.011-1.336-66.729-2.851-87.9,4.116s-19.957,15.916-18.893,23.817c1.02,7.522,1.9,14.018-15.9,19.878s-35.076,4.76-55.088,3.488c-21-1.339-44.809-2.851-65.968,4.113S40.9,135.983,41.965,143.884c1.02,7.522,1.892,14.021-15.913,19.881s-35.076,4.76-55.088,3.488C-44.729,166.254-96.493,165.118-113.211,167.664Zm86.56,4.931c-3.75-.191-7.536-.335-11.336-.4l-.049-.945c3.906.063,7.772.21,11.57.4l-.185.941M389.607,42.955l-2.531-.041a17.911,17.911,0,0,1,.264-4.309l2.532.128a18.477,18.477,0,0,0-.266,4.222M164.715,123.018c-3.821,0-7.681-.122-11.625-.314l.177-.938c3.855.185,7.611.3,11.286.3l.162.949m225.8-70.059-2.553-.075a24.536,24.536,0,0,0-.258-4.249l2.541.014a26.592,26.592,0,0,1,.27,4.309M0,174.123c-3.761-.152-7.581-.372-11.489-.617l.266-.938c3.892.244,7.664.463,11.344.612L0,174.123m212.151-66.581-2.521-.179a12.137,12.137,0,0,0,.587-4.187l2.53.053a12.13,12.13,0,0,1-.6,4.313m-74.3,14.251c-3.73-.232-7.518-.458-11.343-.624l.136-.942c3.9.172,7.733.4,11.48.632l-.274.934M212.152,97.5l-2.541-.014a35.223,35.223,0,0,1-.335-4.3l2.538.056a33.421,33.421,0,0,0,.338,4.257M319.088,70.715c-2.038-.126-4.092-.26-6.172-.385l.25-.938c2.087.128,4.157.262,6.2.389q2.635.171,5.2.328l-.258.935q-2.586-.16-5.221-.328M56.714,152.06l-2.532-.017c-.077-.7-.177-1.4-.268-2.111s-.2-1.442-.279-2.171l2.532.017c.082.73.189,1.451.279,2.165s.191,1.421.267,2.117m-.6-9.936-2.542-.108a13.572,13.572,0,0,1,1.322-4.276l2.492.236a13.262,13.262,0,0,0-1.272,4.149M275.878,69.647c-3.741-.088-7.5-.1-11.252,0l-.34-.949c3.893-.1,7.762-.086,11.6.005l-.008.946m75.438,1.809c-3.832.24-7.69.3-11.6.248l-.065-.952c3.784.056,7.457,0,11.093-.232l.576.937M52.026,161.72a9.806,9.806,0,0,0,2.034-4.047l2.522.143a10.138,10.138,0,0,1-2.129,4.237l-2.427-.333M212.808,87.655l-2.519-.2a14.138,14.138,0,0,1,2.65-4.174l2.41.35a13.449,13.449,0,0,0-2.541,4.021M111.424,120.888c-3.687.047-7.373.193-11.038.484l-.675-.927c3.828-.3,7.661-.457,11.477-.505l.236.949M392.354,33.272,389.9,32.96a19.84,19.84,0,0,1,4.2-3.968l2.271.478a18.7,18.7,0,0,0-4.015,3.8M26.676,173.095a106.475,106.475,0,0,1-11.181,1.07l-.471-.942a101.33,101.33,0,0,0,10.569-1.01l1.082.881m-113.524-.607c-3.562.216-7.11.557-10.637,1.055l-1.017-.891c3.674-.517,7.377-.874,11.094-1.1l.559.936M384.387,62.648l-2.228-.51a14.215,14.215,0,0,0,4.06-3.758l2.463.292a15.427,15.427,0,0,1-4.295,3.976M61.815,132.759l-2.314-.447a32.906,32.906,0,0,1,5.871-3.627l2.058.6a31.127,31.127,0,0,0-5.616,3.473M250.168,70.691c-3.342.414-6.655.965-9.924,1.683l-1.386-.828c3.417-.749,6.885-1.322,10.367-1.758l.943.9m-59.93,49.6a90.023,90.023,0,0,1-10.286,1.866l-.927-.9a84.456,84.456,0,0,0,9.729-1.771l1.484.808m11.334-3.707-1.959-.646a28,28,0,0,0,5.98-3.352l2.3.458a29.937,29.937,0,0,1-6.318,3.539m20.2-37.807-2.126-.567a54.808,54.808,0,0,1,7.274-3.233l1.841.7a52.191,52.191,0,0,0-6.988,3.1M86.653,123.2c-3.065.6-6.092,1.331-9.091,2.23l-1.658-.756a96.6,96.6,0,0,1,9.471-2.319l1.279.846M374.168,67.23a82.686,82.686,0,0,1-8.472,2.29l-1.362-.83a79.222,79.222,0,0,0,8.092-2.188c.216-.071.424-.14.624-.211l1.766.72c-.208.075-.424.145-.648.219M40.534,169.824c-.316.1-.64.211-.963.311l-1.708-.739c.307-.1.622-.2.929-.3a52.774,52.774,0,0,0,6.6-2.61l2.05.609a55.942,55.942,0,0,1-6.9,2.729" transform="translate(59.617 -10.877)" fill="#303030"/>
      <g id="Group_1751" data-name="Group 1751" transform="translate(-0.792 160.495)">
        <path id="Path_3580" data-name="Path 3580" d="M741.893,412.909c-3.808-.007-7.68.035-11.581.161l.14.941c3.8-.122,7.587-.162,11.348-.154Z" transform="translate(-730.312 -412.908)" fill="#fff"/>
      </g>
      <path id="Path_3581" data-name="Path 3581" d="M57.607,149.259c-17.8,5.86-16.924,12.355-15.912,19.881,1.072,7.9,2.275,16.85-18.892,23.817s-44.966,5.451-65.976,4.115c-6.13-.393-11.923-.761-17.634-.922-13.239-.375-59.961,1.151-70.02,4.305l1.742.729c10.5-3.292,55.669-4.443,68.254-4.088,5.59.16,11.31.524,17.384.911,21.551,1.369,45.977,2.924,67.992-4.321s20.781-16.434,19.684-24.535c-.981-7.289-1.828-13.584,15.12-19.163s33.682-4.512,53.065-3.279c21.551,1.369,45.977,2.924,67.992-4.322s20.781-16.428,19.684-24.529c-.99-7.292-1.836-13.588,15.113-19.166s55.61-4.514,74.985-3.279c21.551,1.369,45.977,2.924,67.991-4.322s20.773-16.431,19.684-24.535a26.046,26.046,0,0,1-.352-6.517c.545-4.677,5.866-8.968,15.024-12.139l-.83-1.036c-10.551,3.637-16.156,8.151-16.736,13.073a26.666,26.666,0,0,0,.361,6.607c1.064,7.9,2.275,16.85-18.892,23.817s-44.973,5.448-65.984,4.112c-20-1.271-59.188-2.372-76.992,3.488s-16.924,12.355-15.9,19.878c1.064,7.9,2.267,16.853-18.892,23.817s-44.974,5.448-65.976,4.116C92.684,144.5,75.4,143.4,57.607,149.259Z" transform="translate(90.16 -28.649)" fill="#fff"/>
      <g id="Group_1753" data-name="Group 1753" transform="translate(-35.658 147.529)" style="isolation: isolate">
        <g id="Group_1752" data-name="Group 1752" clip-path="url(#clip-path-35)">
          <path id="Path_3582" data-name="Path 3582" d="M495.335,405.575q2.382-.514,4.76-.863,1.927-.284,3.867-.473c1.231-.121,36.445-.215,37.693-.286q2.024-.114,4.09-.152c1.7-.032,3.432-.028,5.2,0,3.173.057,6.462.2,9.92.4,2.582.144,5.258.314,8.051.492,2.983.19,6.064.386,9.223.563,4.9.275,9.987.506,15.188.6,3.068.055,6.177.063,9.31,0q3.812-.072,7.667-.285,3.527-.2,7.068-.543,3.588-.352,7.171-.876,4.2-.619,8.358-1.508a109.314,109.314,0,0,0,11.146-3.008c18.439-6.068,22.536-13.333,22.964-20.094l-.589,9.316c-.427,6.761-4.525,14.026-22.964,20.094a109.248,109.248,0,0,1-11.146,3.008q-4.157.9-8.357,1.508-3.581.528-7.171.876-3.538.347-7.068.543-3.85.218-7.667.285c-3.133.059-6.241.051-9.31,0-5.2-.094-10.288-.325-15.188-.6-3.159-.177-6.239-.373-9.223-.563-2.793-.177-5.469-.347-8.05-.492-3.458-.193-6.746-.341-9.92-.4q-2.647-.047-5.2,0-2.068.039-4.09.152c-1.248.071-36.462.165-37.693.286q-1.942.191-3.867.473-2.383.352-4.761.863a71.2,71.2,0,0,0-7.244,1.971l.589-9.316A71.315,71.315,0,0,1,495.335,405.575Z" transform="translate(-487.502 -379.548)" fill="#7c7c7c"/>
        </g>
      </g>
      <path id="Path_3583" data-name="Path 3583" d="M-32.848,157.327c18.578,1.181,31.992,2.032,45.917-2.551s13.26-9.63,12.311-16.613c-1.132-8.4-2.543-18.844,22.494-27.084s52.815-6.469,75.139-5.05c18.561,1.18,31.983,2.035,45.917-2.551s13.244-9.631,12.312-16.614c-1.132-8.394-2.544-18.843,22.485-27.081s74.735-6.469,97.058-5.049c18.57,1.177,31.991,2.032,45.918-2.551s13.242-9.631,12.311-16.614c-1.132-8.395-3.118-18.511,22.833-27.052l42.8,18.024c-13.935,4.586-13.243,9.631-12.3,16.616,1.132,8.4,2.536,18.841-22.493,27.078s-52.807,6.473-75.131,5.052c-18.578-1.18-53.911-2.038-67.846,2.548s-13.243,9.631-12.3,16.617c1.132,8.395,2.536,18.84-22.493,27.078S159.27,128,136.946,126.584c-18.578-1.181-32-2.036-45.925,2.548s-13.251,9.633-12.3,16.616c1.132,8.4,2.536,18.84-22.5,27.081S3.409,179.3-18.915,177.882c-18.578-1.181-65.967-2.038-80.823,2.851l-43.175-18.052C-117.885,154.443-55.171,155.907-32.848,157.327Zm-99.854,8.235,12.455,5.212,2.035.852,12.514,5.236,2.1.88,3.966,1.659c14.447-4.526,62.144-3.652,80.98-2.457,21.808,1.39,48.941,3.116,73.123-4.843s22.808-18.163,21.7-26.367c-.968-7.234-1.678-12.466,13.1-17.331s28.694-3.979,47.941-2.754c21.8,1.387,48.934,3.112,73.115-4.846s22.808-18.163,21.694-26.364c-.969-7.234-1.678-12.467,13.1-17.332s50.615-3.978,69.861-2.753c21.8,1.387,48.934,3.112,73.116-4.847S410.917,51.345,409.8,43.144c-.948-7.083-1.647-12.242,12.19-17.024l-3.734-1.562L382.329,9.523C359.1,17.438,360.451,27.485,361.549,35.58c.977,7.238,1.678,12.466-13.1,17.332s-28.686,3.982-47.933,2.757c-21.8-1.386-70.862-3.115-95.043,4.844s-22.8,18.166-21.694,26.364c.977,7.238,1.679,12.467-13.1,17.332s-28.686,3.982-47.933,2.757c-21.8-1.387-48.941-3.116-73.123,4.844s-22.8,18.165-21.7,26.366c.977,7.238,1.679,12.466-13.1,17.332s-28.687,3.981-47.934,2.757c-21.525-1.372-82.216-3.071-106.17,4.543l4.33,1.812,2.259.945" transform="translate(64.669 -5.206)" fill="#aaa"/>
      <path id="Path_3584" data-name="Path 3584" d="M-102.724,32.508c-.482.159-.964.323-1.43.488l1.808.707c.441-.157.914-.313,1.371-.463l1.81-.6h0l-1.749-.732h0Z" transform="translate(567.241 -19.508)" fill="#fff"/>
      <path id="Path_3585" data-name="Path 3585" d="M-75.623,47.082l-2.27-.478a19.868,19.868,0,0,0-4.2,3.968l2.453.313A18.7,18.7,0,0,1-75.623,47.082Z" transform="translate(531.609 -28.489)" fill="#fff"/>
      <path id="Path_3586" data-name="Path 3586" d="M-69.946,71.336a17.91,17.91,0,0,0-.264,4.309l2.531.041a18.506,18.506,0,0,1,.266-4.222Z" transform="translate(516.904 -43.608)" fill="#fff"/>
      <path id="Path_3587" data-name="Path 3587" d="M-68.895,97.156l-2.541-.014a24.593,24.593,0,0,1,.259,4.249l2.552.075A26.6,26.6,0,0,0-68.895,97.156Z" transform="translate(518.761 -59.383)" fill="#fff"/>
      <path id="Path_3588" data-name="Path 3588" d="M-61.542,122.5-64,122.21a14.224,14.224,0,0,1-4.06,3.758l2.228.51A15.428,15.428,0,0,0-61.542,122.5Z" transform="translate(509.841 -74.708)" fill="#fff"/>
      <path id="Path_3589" data-name="Path 3589" d="M-34.671,142.775a79.129,79.129,0,0,1-8.093,2.188l1.361.83a82.756,82.756,0,0,0,8.473-2.29c.224-.074.441-.145.649-.219l-1.767-.721C-34.248,142.636-34.455,142.7-34.671,142.775Z" transform="translate(466.716 -87.15)" fill="#fff"/>
      <path id="Path_3590" data-name="Path 3590" d="M149.369,148.645c-3.838-.091-7.707-.108-11.6-.005l.34.949c3.748-.1,7.511-.085,11.253,0Z" transform="translate(186.134 -90.821)" fill="#fff"/>
      <path id="Path_3591" data-name="Path 3591" d="M55.38,150.932c-2.039-.127-4.109-.26-6.2-.389l-.25.938c2.079.125,4.133.258,6.172.385q2.634.171,5.221.328l.258-.935Q58.009,151.1,55.38,150.932Z" transform="translate(323.6 -92.028)" fill="#fff"/>
      <path id="Path_3592" data-name="Path 3592" d="M11.213,153.444c-3.636.229-7.308.288-11.092.232l.065.952c3.914.055,7.772-.007,11.6-.248Z" transform="translate(399.145 -93.801)" fill="#fff"/>
      <path id="Path_3593" data-name="Path 3593" d="M195.065,151.559c-3.482.436-6.95,1.009-10.367,1.758l1.386.828c3.269-.718,6.582-1.269,9.924-1.683Z" transform="translate(113.778 -92.649)" fill="#fff"/>
      <path id="Path_3594" data-name="Path 3594" d="M232.872,165.6l-1.841-.7a54.826,54.826,0,0,0-7.274,3.232l2.127.567A52.189,52.189,0,0,1,232.872,165.6Z" transform="translate(55.509 -100.808)" fill="#fff"/>
      <path id="Path_3595" data-name="Path 3595" d="M253.3,186.633l-2.41-.351a14.151,14.151,0,0,0-2.651,4.174l2.519.2A13.461,13.461,0,0,1,253.3,186.633Z" transform="translate(21.669 -113.875)" fill="#fff"/>
      <path id="Path_3596" data-name="Path 3596" d="M256.607,211.814l-2.538-.056a35.111,35.111,0,0,0,.335,4.3l2.541.014A33.322,33.322,0,0,1,256.607,211.814Z" transform="translate(14.825 -129.449)" fill="#fff"/>
      <path id="Path_3597" data-name="Path 3597" d="M253.57,237.458a12.15,12.15,0,0,1-.587,4.187l2.52.179a12.1,12.1,0,0,0,.6-4.313Z" transform="translate(16.26 -145.159)" fill="#fff"/>
      <path id="Path_3598" data-name="Path 3598" d="M270.126,262.122l-2.3-.458a27.994,27.994,0,0,1-5.98,3.352l1.959.646A29.914,29.914,0,0,0,270.126,262.122Z" transform="translate(-2.62 -159.956)" fill="#fff"/>
      <path id="Path_3599" data-name="Path 3599" d="M303.787,279.407a84.428,84.428,0,0,1-9.728,1.771l.927.9a90.113,90.113,0,0,0,10.286-1.867Z" transform="translate(-55.417 -170.803)" fill="#fff"/>
      <path id="Path_3600" data-name="Path 3600" d="M400.788,281.957c-3.746-.233-7.583-.46-11.48-.632l-.136.943c3.824.166,7.612.391,11.343.624Z" transform="translate(-203.054 -171.975)" fill="#fff"/>
      <path id="Path_3601" data-name="Path 3601" d="M352.1,285.588c-3.675,0-7.431-.117-11.286-.3l-.177.938c3.944.192,7.8.317,11.625.314Z" transform="translate(-127.927 -174.396)" fill="#fff"/>
      <path id="Path_3602" data-name="Path 3602" d="M449.359,280.586c-3.817.048-7.65.2-11.478.505l.674.927c3.666-.291,7.352-.437,11.039-.484Z" transform="translate(-278.553 -171.524)" fill="#fff"/>
      <path id="Path_3603" data-name="Path 3603" d="M492.554,286.8a96.709,96.709,0,0,0-9.471,2.319l1.658.756c3-.9,6.026-1.632,9.091-2.23Z" transform="translate(-347.562 -175.322)" fill="#fff"/>
      <path id="Path_3604" data-name="Path 3604" d="M526.09,303.687l-2.058-.6a32.925,32.925,0,0,0-5.871,3.627l2.314.447A31.123,31.123,0,0,1,526.09,303.687Z" transform="translate(-399.041 -185.278)" fill="#fff"/>
      <path id="Path_3605" data-name="Path 3605" d="M540.306,326.619l-2.492-.236a13.57,13.57,0,0,0-1.322,4.276l2.542.108A13.242,13.242,0,0,1,540.306,326.619Z" transform="translate(-423.304 -199.519)" fill="#fff"/>
      <path id="Path_3606" data-name="Path 3606" d="M537.717,352.163c.082.73.18,1.454.279,2.172s.191,1.415.268,2.111l2.532.017c-.076-.7-.176-1.4-.267-2.117s-.2-1.436-.28-2.166Z" transform="translate(-424.466 -215.279)" fill="#fff"/>
      <path id="Path_3607" data-name="Path 3607" d="M542.522,377.806,540,377.663a9.744,9.744,0,0,1-2.041,4.05l2.435.33A10.138,10.138,0,0,0,542.522,377.806Z" transform="translate(-426.323 -230.867)" fill="#fff"/>
      <path id="Path_3608" data-name="Path 3608" d="M555.573,402.944c-.307.1-.622.2-.929.3l1.708.74c.323-.1.647-.207.963-.311a55.956,55.956,0,0,0,6.9-2.729l-2.05-.609A52.786,52.786,0,0,1,555.573,402.944Z" transform="translate(-457.164 -244.726)" fill="#fff"/>
      <path id="Path_3609" data-name="Path 3609" d="M110.794,118.439c-22.014,7.246-20.781,16.428-19.684,24.535.974,7.286,1.829,13.579-15.129,19.16s-33.674,4.515-53.057,3.283c-16.041-1.019-68.183-2.177-85.54.468a82.528,82.528,0,0,0-13.3,3.127l-1.8.593,1.742.728,1.8-.593a78.276,78.276,0,0,1,12.637-2.975c16.717-2.546,68.481-1.41,84.175-.412,20.012,1.272,37.292,2.369,55.088-3.488s16.933-12.358,15.913-19.881c-1.064-7.9-2.275-16.85,18.892-23.817s44.966-5.451,65.968-4.113c20.012,1.272,37.284,2.372,55.088-3.488s16.924-12.355,15.9-19.878c-1.064-7.9-2.275-16.85,18.893-23.817s66.886-5.451,87.9-4.116c20,1.275,37.285,2.372,55.081-3.485s16.924-12.355,15.9-19.877c-.788-5.9-1.7-12.594,7.108-18.449a39.938,39.938,0,0,1,9.46-4.3l1.81-.6-1.741-.729-1.811.6a42.155,42.155,0,0,0-9.955,4.526c-9.142,6.076-8.215,12.908-7.4,18.933.981,7.289,1.828,13.585-15.121,19.163s-33.682,4.517-53.057,3.283C335,61.45,288.661,59.9,266.647,67.144s-20.781,16.428-19.684,24.535c.982,7.283,1.829,13.578-15.12,19.156s-33.682,4.517-53.066,3.285C157.227,112.745,132.808,111.194,110.794,118.439Z" transform="translate(7.94 -9.978)" fill="#fff"/>
      <path id="Path_3610" data-name="Path 3610" d="M-52.429,199.636c-6.075-.388-11.795-.751-17.384-.911-12.585-.355-58.685,1.1-68.254,4.088l3.966,1.66c14.448-4.526,62.144-3.653,80.98-2.457,21.808,1.39,48.942,3.115,73.123-4.844S42.81,179.01,41.7,170.806c-.969-7.234-1.679-12.467,13.1-17.332s28.694-3.978,47.941-2.754c21.8,1.387,48.934,3.112,73.116-4.846s22.808-18.163,21.694-26.364c-.969-7.234-1.679-12.466,13.1-17.332s50.615-3.978,69.861-2.754c21.8,1.387,48.934,3.112,73.115-4.847s22.808-18.163,21.694-26.364c-.949-7.083-1.648-12.242,12.189-17.025l-3.967-1.66c-9.158,3.171-14.479,7.461-15.024,12.139a26.042,26.042,0,0,0,.352,6.516c1.089,8.1,2.33,17.29-19.684,24.535s-46.441,5.691-67.991,4.322c-19.375-1.235-58.036-2.3-74.985,3.279s-16.1,11.874-15.113,19.166c1.1,8.1,2.331,17.283-19.684,24.529s-46.441,5.691-67.992,4.321c-19.383-1.232-36.116-2.3-53.065,3.279s-16.1,11.874-15.12,19.163c1.1,8.1,2.338,17.287-19.684,24.535S-30.878,201.006-52.429,199.636Z" transform="translate(99.141 -30.279)" fill="#303030"/>
      <path id="Path_3611" data-name="Path 3611" d="M814.576,405.136l-.582,8.6L857.163,432.5l.589-9.316Z" transform="translate(-892.821 -247.662)" fill="#767676"/>
    </g>
  </g>
  <path id="Path_3504" data-name="Path 3504" d="M445.428,84.874" transform="translate(-278.523 -59.412)" fill="#f7a300"/>
  <path id="Path_3618" data-name="Path 3618" d="M173.008,83.659" transform="translate(143.184 -58.561)" fill="none" stroke="#f7a300" stroke-miterlimit="10" stroke-width="1" stroke-dasharray="3"/>
  <path id="Path_3619" data-name="Path 3619" d="M128.547,83.746" transform="translate(243.889 -58.622)" fill="#f7a300"/>
  <path id="Path_3626" data-name="Path 3626" d="M406.745,221.094" transform="translate(-218.641 -135.156)" fill="#52d0e1"/>
  <path id="Path_3634" data-name="Path 3634" d="M320.81,389.408" transform="translate(-85.614 -238.047)" fill="none" stroke="#e83131" stroke-miterlimit="10" stroke-width="1" stroke-dasharray="3"/>
  <path id="Path_3635" data-name="Path 3635" d="M283.9,130.794" transform="translate(-28.477 -79.955)" fill="#db264b"/>
</svg>
